<?xml version="1.0" encoding="UTF-8" standalone="no"?>
<!DOCTYPE svg PUBLIC "-//W3C//DTD SVG 1.1//EN" "http://www.w3.org/Graphics/SVG/1.1/DTD/svg11.dtd">
<svg width="100%" height="100%" viewBox="0 0 623 623" version="1.1" xmlns="http://www.w3.org/2000/svg" xmlns:xlink="http://www.w3.org/1999/xlink" xml:space="preserve" xmlns:serif="http://www.serif.com/" style="fill-rule:evenodd;clip-rule:evenodd;stroke-linejoin:round;stroke-miterlimit:2;">
    <g transform="matrix(1,0,0,1,-203,-188)">
        <path d="M332.74,400.69C350.66,399.01 350.6,408.6 361.76,417.69C382.94,434.94 409.68,433.94 430.66,416.94C435.15,413.3 443.99,402.33 448.85,401.38C456.08,399.97 462.05,411.81 466.3,416.56C489.22,442.22 527.64,444.69 552.84,420.72C557.69,416.11 565.59,402.69 571.73,402.12C577.8,401.56 585.12,412.71 589.24,416.5C606.22,432.16 631.7,436.63 652.12,424.83C669.45,414.82 667.62,399.26 692.93,401.23C737.72,404.71 784.49,435 805.35,474.63C808.68,480.95 815.22,493.16 810.96,499.75C807.17,505.62 787.4,512.13 780.39,513.39C775.44,514.28 755.27,514.42 753.64,518.07C765.24,556.58 757.1,597.56 720.04,617.89C711.75,622.44 701.22,623.83 700.07,635.38C699.55,640.63 700.94,645.79 700.84,651.15C699.98,696.38 661.01,732.43 615.77,729.41C607.86,728.88 592.5,723.29 586.12,725.26C582.47,726.39 578.33,734.78 575.65,738.02C548.59,770.67 499.35,778.77 464.53,753.28C455.08,746.36 450.75,739.16 443.43,730.92C431.38,717.35 423.71,726.87 408.98,727.96C363.5,731.32 324.51,700.11 320.88,654.16C320.57,650.29 321.22,646.05 320.9,642.15C319.02,619.52 303,620.06 289.05,608.06C268.13,590.07 260.85,561.92 265.67,535.19C266.2,532.24 270.71,518.76 269.65,517.33C255.34,513.64 224.3,512.84 214.11,500.92C206.65,492.2 218.02,474.63 223.19,466.49C246.54,429.74 289.31,404.77 332.75,400.71L332.74,400.69ZM328.23,420.16C293.91,423.45 247.65,451.38 233.85,483.89C231.5,489.42 231.74,491.1 237.56,493.18C282.55,509.3 328.62,482.45 351.79,444.48C354.74,439.64 356.05,438.27 352.37,433.07C347.88,426.75 336.13,419.4 328.23,420.16ZM686.37,420.13C682.95,420.83 671.61,432.5 669.78,435.76C667.66,439.52 669.36,441.33 671.27,444.63C693.04,482.16 738.45,505.57 781.73,494.52C789.63,492.5 793.96,491.65 789.87,482.63C780.77,462.55 755.6,441.74 736.04,432.31C724.58,426.78 698.62,417.65 686.36,420.14L686.37,420.13ZM450.44,425.3C448.72,424.3 442.55,430.88 440.72,432.24C421.07,446.84 402.97,450.57 378.6,446.92C378.23,466.77 381.02,486.67 384.08,506.26C387.77,529.9 392.96,553.57 400.13,576.38C416.06,627.02 443.56,683.46 501.48,693.45C502.9,692.44 503.32,671.38 502.99,668.34C502.09,659.97 492.28,657.09 486.15,652.21C482.22,649.09 473.5,641.31 473.71,636.14C473.86,632.52 477.36,628.62 480.95,628.27C489.37,627.45 501.64,645.6 512.35,645.55C523.83,645.5 537.49,619.93 547.56,630.51C553.4,636.64 545.61,645.71 540.8,649.97C534.46,655.58 523.09,658.68 520.55,667.18C519.49,670.73 519.82,681.64 520.21,685.58C521.04,694.09 525.55,692.28 532.02,690.64C595.19,674.67 624.93,580.48 635.37,524.24C639.01,504.64 643.15,480.49 644.58,460.77C644.87,456.77 645.12,451.51 643.12,447.99C642,447.22 633,449.06 630.72,449.16C610.76,450.06 595.05,444.38 579.79,431.91C577.96,430.41 574.5,425.56 572.33,425.88C542.12,465.55 480.13,464.91 450.41,425.29L450.44,425.3ZM360.62,467.16C359.16,465.42 346.88,480.64 345.28,482.16C336.98,490.11 325.17,498.28 314.93,503.51C308.64,506.72 295.46,510.35 291.81,515.61C271.9,544.29 283.09,586.25 312.91,602.91C318.62,606.1 336.01,611.25 338.79,615.24C342.38,620.38 338.49,633.52 338.14,639.88C335.83,682.58 368.96,717.46 412.47,708.96C420.67,707.36 429.71,702.37 437,701.28C441.08,700.67 443.38,700.96 446.43,703.91C451.88,709.18 457.04,720.3 462.53,726.77C487.21,755.82 529.11,759.14 556.47,731.59C563.45,724.56 567.45,715.89 573.42,708.83C582.5,698.1 591.27,706.1 602.62,708.82C650.31,720.24 687.92,686.04 682.7,637.73C682.03,631.52 678.1,621.49 681.39,615.99C683.39,612.65 703.58,606.16 709.04,603.18C737.61,587.61 747.03,558.66 737.87,527.86C732.3,509.14 726.36,511.43 711,504.52C701.38,500.19 690.7,493.23 682.78,486.28C675.54,479.92 670,471.83 662.57,465.66C653.43,531.4 642.36,604.38 602.48,659.22C549.02,732.73 462.93,726.93 414.53,651.88C379.75,597.95 368.32,529.92 360.59,467.16L360.62,467.16Z" style="fill:#FFFFFF;fill-rule:nonzero;"/>
    </g>
    <g transform="matrix(1,0,0,1,-203,-188)">
        <path d="M553.68,291.34C524.49,262.58 481.52,269.57 458.92,302.09C455.21,307.43 452.08,317.84 444.25,317.28C440.38,317 430.57,310.13 425.45,308.3C393.2,296.77 355.12,313.58 346.01,347.29C343.4,356.95 344.16,367.25 338.74,375.99C332.71,385.72 323.28,385.17 313.59,388.31C304.51,391.25 298.18,395.82 289.95,399.89C287.06,401.32 276.92,406.49 274.47,405.37C269.54,403.13 271.72,399 273.82,395.75C279.67,386.71 290.69,378.72 300.4,374.37C310.5,369.84 320.89,369.96 325.19,357.95C327.25,352.18 327.8,345.48 329.88,339.41C343.25,300.32 382.14,280.81 422.06,289.21C427.22,290.3 435.36,294.07 440.08,293.02C445.66,291.78 448.44,285.4 452,281.7C482.48,250.01 529.85,246.13 562.93,276.46C567.39,280.55 575.57,292.13 580.27,293.58C586.48,295.5 597.08,290.16 603.96,289.03C642.38,282.75 679.12,303.09 691.62,340.34C693.94,347.24 694.97,358.68 699.29,364.14C703.61,369.59 711.03,369.76 716.93,371.97C726.82,375.68 749.25,388.95 752.66,399.17C754.38,404.32 751.86,407.6 746.47,406.11C737.35,403.6 722.97,393.6 712.76,389.62C705.48,386.78 697.16,385.52 690.31,382.85C677.64,377.9 680.11,368.6 678.09,357.61C670.83,318.3 634.83,295.69 596.23,309.03C588.9,311.56 576.72,321.53 570.42,314.67C564.12,307.81 560.88,298.44 553.67,291.33L553.68,291.34Z" style="fill:#FFFFFF;fill-rule:nonzero;"/>
    </g>
    <g transform="matrix(1,0,0,1,-203,-188)">
        <path d="M409.16,495.02C415,494.4 419.39,502.99 423.56,506.51C433.88,515.24 447.71,516.45 458.43,507.64C464.04,503.03 470.67,489.8 478.96,498.31C484.32,503.82 477.85,513.06 473.75,517.71C454.68,539.33 415.33,534.83 403.21,508.12C400.54,502.24 401.98,495.78 409.17,495.01L409.16,495.02Z" style="fill:#FFFFFF;fill-rule:nonzero;"/>
    </g>
    <g transform="matrix(1,0,0,1,-203,-188)">
        <path d="M550.01,495.82C551.18,495.51 552.33,495.49 553.52,495.67C556.78,496.15 565.08,505.96 569,508.69C579.48,515.97 589.34,515.58 599.26,507.62C604.95,503.05 613.05,489.43 621.04,498.61C624.87,503.01 622.19,507.32 619.74,511.61C604.25,538.72 558.91,537.43 545.8,508.66C543.58,503.78 544.06,497.41 550.01,495.83L550.01,495.82Z" style="fill:#FFFFFF;fill-rule:nonzero;"/>
    </g>
</svg>
