<?xml version="1.0" encoding="UTF-8" standalone="no"?>
<!DOCTYPE svg PUBLIC "-//W3C//DTD SVG 1.1//EN" "http://www.w3.org/Graphics/SVG/1.1/DTD/svg11.dtd">
<svg width="100%" height="100%" viewBox="0 0 783 154" version="1.1" xmlns="http://www.w3.org/2000/svg" xmlns:xlink="http://www.w3.org/1999/xlink" xml:space="preserve" xmlns:serif="http://www.serif.com/" style="fill-rule:evenodd;clip-rule:evenodd;stroke-linejoin:round;stroke-miterlimit:2;">
    <g transform="matrix(1,0,0,1,-118,-433)">
        <path d="M152.97,538.73C147.73,534.9 144.81,529.69 144.19,523.09L153.69,523.09C154.13,527.14 156.04,530.42 159.43,532.92C162.82,535.43 167.37,536.68 173.09,536.68C178.11,536.68 182.04,535.49 184.9,533.12C187.76,530.74 189.19,527.8 189.19,524.28C189.19,521.82 188.4,519.79 186.81,518.21C185.22,516.63 183.22,515.37 180.8,514.45C178.38,513.53 175.1,512.54 170.97,511.48C165.6,510.07 161.25,508.66 157.9,507.26C154.55,505.85 151.72,503.76 149.39,500.99C147.06,498.22 145.89,494.5 145.89,489.84C145.89,486.32 146.95,483.06 149.06,480.07C151.17,477.08 154.16,474.7 158.04,472.94C161.91,471.18 166.31,470.3 171.24,470.3C178.98,470.3 185.23,472.26 189.98,476.17C194.73,480.09 197.28,485.48 197.64,492.34L188.4,492.34C188.14,488.12 186.49,484.71 183.45,482.11C180.41,479.52 176.26,478.22 170.98,478.22C166.31,478.22 162.53,479.32 159.63,481.52C156.73,483.72 155.27,486.45 155.27,489.7C155.27,492.52 156.13,494.83 157.84,496.63C159.56,498.43 161.69,499.84 164.24,500.85C166.79,501.86 170.22,502.98 174.54,504.22C179.73,505.63 183.87,506.99 186.95,508.31C190.03,509.63 192.67,511.57 194.87,514.12C197.07,516.67 198.21,520.06 198.3,524.28C198.3,528.15 197.24,531.61 195.13,534.64C193.02,537.68 190.07,540.07 186.29,541.83C182.51,543.59 178.15,544.47 173.22,544.47C164.95,544.47 158.19,542.56 152.96,538.73L152.97,538.73Z" style="fill-rule:nonzero;"/>
    </g>
    <g transform="matrix(1,0,0,1,-118,-433)">
        <rect x="210.98" y="445.74" width="9.24" height="97.68" style="fill-rule:nonzero;"/>
    </g>
    <g transform="matrix(1,0,0,1,-118,-433)">
        <path d="M301.4,510.94L241.6,510.94C241.86,516.4 243.18,521.06 245.56,524.93C247.94,528.8 251.06,531.73 254.93,533.71C258.8,535.69 263.03,536.68 267.6,536.68C273.58,536.68 278.62,535.23 282.71,532.32C286.8,529.42 289.51,525.5 290.83,520.57L300.6,520.57C298.84,527.61 295.08,533.35 289.31,537.8C283.55,542.24 276.31,544.47 267.6,544.47C260.82,544.47 254.75,542.95 249.38,539.92C244.01,536.88 239.81,532.57 236.77,526.98C233.73,521.39 232.22,514.86 232.22,507.38C232.22,499.9 233.72,493.34 236.71,487.71C239.7,482.08 243.88,477.77 249.25,474.77C254.62,471.78 260.73,470.28 267.6,470.28C274.47,470.28 280.47,471.78 285.62,474.77C290.77,477.76 294.73,481.79 297.5,486.85C300.27,491.91 301.66,497.52 301.66,503.68C301.66,506.85 301.57,509.27 301.4,510.94ZM289.06,489.69C286.82,485.91 283.76,483.05 279.89,481.11C276.02,479.18 271.79,478.21 267.22,478.21C260.36,478.21 254.5,480.41 249.66,484.81C244.82,489.21 242.14,495.42 241.61,503.42L292.3,503.42C292.39,498.05 291.31,493.48 289.07,489.69L289.06,489.69Z" style="fill-rule:nonzero;"/>
    </g>
    <g transform="matrix(1,0,0,1,-118,-433)">
        <path d="M378.75,510.94L318.95,510.94C319.21,516.4 320.53,521.06 322.91,524.93C325.29,528.8 328.41,531.73 332.28,533.71C336.15,535.69 340.38,536.68 344.95,536.68C350.93,536.68 355.97,535.23 360.06,532.32C364.15,529.42 366.86,525.5 368.18,520.57L377.95,520.57C376.19,527.61 372.43,533.35 366.66,537.8C360.9,542.24 353.66,544.47 344.95,544.47C338.17,544.47 332.1,542.95 326.73,539.92C321.36,536.88 317.16,532.57 314.12,526.98C311.08,521.39 309.57,514.86 309.57,507.38C309.57,499.9 311.07,493.34 314.06,487.71C317.05,482.08 321.23,477.77 326.6,474.77C331.97,471.78 338.08,470.28 344.95,470.28C351.82,470.28 357.82,471.78 362.97,474.77C368.12,477.76 372.08,481.79 374.85,486.85C377.62,491.91 379.01,497.52 379.01,503.68C379.01,506.85 378.92,509.27 378.75,510.94ZM366.41,489.69C364.17,485.91 361.11,483.05 357.24,481.11C353.37,479.18 349.14,478.21 344.57,478.21C337.71,478.21 331.85,480.41 327.01,484.81C322.17,489.21 319.49,495.42 318.96,503.42L369.65,503.42C369.74,498.05 368.66,493.48 366.42,489.69L366.41,489.69Z" style="fill-rule:nonzero;"/>
    </g>
    <g transform="matrix(1,0,0,1,-118,-433)">
        <path d="M411.15,475.11C416.12,471.9 422.04,470.29 428.9,470.29C435.41,470.29 441.29,471.81 446.52,474.84C451.75,477.88 455.85,482.19 458.8,487.78C461.75,493.37 463.22,499.86 463.22,507.25C463.22,514.64 461.75,521.16 458.8,526.79C455.85,532.42 451.76,536.78 446.52,539.86C441.28,542.94 435.41,544.48 428.9,544.48C422.39,544.48 416.23,542.88 411.21,539.66C406.19,536.45 402.54,532.42 400.25,527.58L400.25,577.48L391.14,577.48L391.14,471.35L400.25,471.35L400.25,487.19C402.54,482.35 406.17,478.33 411.14,475.11L411.15,475.11ZM450.36,491.74C448.03,487.38 444.84,484.06 440.79,481.77C436.74,479.48 432.16,478.34 427.06,478.34C421.96,478.34 417.62,479.53 413.53,481.9C409.44,484.28 406.2,487.67 403.83,492.06C401.45,496.46 400.27,501.56 400.27,507.37C400.27,513.18 401.46,518.28 403.83,522.68C406.21,527.08 409.44,530.47 413.53,532.84C417.62,535.22 422.13,536.4 427.06,536.4C431.99,536.4 436.74,535.23 440.79,532.9C444.84,530.57 448.03,527.18 450.36,522.74C452.69,518.3 453.86,513.13 453.86,507.23C453.86,501.33 452.69,496.08 450.36,491.72L450.36,491.74Z" style="fill-rule:nonzero;"/>
    </g>
    <g transform="matrix(1,0,0,1,-118,-433)">
        <path d="M512.59,541.37C507.84,539.21 504.08,536.29 501.3,532.59C498.53,528.89 497.01,524.8 496.75,520.31L515.36,520.31C515.71,523.13 517.1,525.46 519.52,527.31C521.94,529.16 524.95,530.08 528.56,530.08C532.17,530.08 534.83,529.38 536.81,527.97C538.79,526.56 539.78,524.76 539.78,522.56C539.78,520.18 538.57,518.4 536.15,517.21C533.73,516.02 529.88,514.72 524.6,513.32C519.14,512 514.68,510.64 511.2,509.23C507.72,507.82 504.73,505.67 502.22,502.76C499.71,499.86 498.46,495.94 498.46,491.01C498.46,486.96 499.63,483.27 501.96,479.92C504.29,476.58 507.64,473.94 511.99,472C516.35,470.07 521.47,469.1 527.37,469.1C536.08,469.1 543.03,471.28 548.23,475.63C553.42,479.99 556.28,485.86 556.81,493.25L539.12,493.25C538.86,490.35 537.65,488.04 535.49,486.32C533.33,484.6 530.45,483.75 526.84,483.75C523.49,483.75 520.92,484.37 519.12,485.6C517.32,486.83 516.41,488.55 516.41,490.75C516.41,493.21 517.64,495.09 520.11,496.36C522.57,497.64 526.4,498.93 531.59,500.25C536.87,501.57 541.23,502.94 544.66,504.34C548.09,505.75 551.06,507.93 553.57,510.87C556.08,513.82 557.38,517.71 557.46,522.55C557.46,526.77 556.29,530.56 553.96,533.9C551.63,537.25 548.28,539.86 543.93,541.75C539.57,543.64 534.49,544.59 528.68,544.59C522.87,544.59 517.33,543.51 512.58,541.36L512.59,541.37Z" style="fill-rule:nonzero;"/>
    </g>
    <g transform="matrix(1,0,0,1,-118,-433)">
        <path d="M623.87,472.86C628.18,475.28 631.55,478.85 633.97,483.55C636.39,488.26 637.6,493.91 637.6,500.51L637.6,543.41L619.12,543.41L619.12,503.02C619.12,497.21 617.67,492.75 614.76,489.62C611.86,486.5 607.9,484.93 602.88,484.93C597.86,484.93 593.75,486.49 590.8,489.62C587.85,492.74 586.38,497.21 586.38,503.02L586.38,543.41L567.9,543.41L567.9,445.73L586.38,445.73L586.38,479.39C588.76,476.22 591.92,473.74 595.88,471.93C599.84,470.13 604.24,469.22 609.08,469.22C614.62,469.22 619.55,470.43 623.86,472.85L623.87,472.86Z" style="fill-rule:nonzero;"/>
    </g>
    <g transform="matrix(1,0,0,1,-118,-433)">
        <path d="M717.85,512.4L664.39,512.4C664.83,517.68 666.68,521.82 669.93,524.81C673.18,527.8 677.19,529.3 681.94,529.3C688.8,529.3 693.69,526.35 696.59,520.46L716.52,520.46C714.41,527.5 710.36,533.29 704.38,537.82C698.39,542.35 691.05,544.62 682.34,544.62C675.3,544.62 668.99,543.06 663.4,539.93C657.81,536.81 653.45,532.39 650.33,526.66C647.21,520.94 645.64,514.34 645.64,506.86C645.64,499.38 647.18,492.65 650.26,486.93C653.34,481.21 657.65,476.81 663.2,473.73C668.74,470.65 675.12,469.11 682.34,469.11C689.56,469.11 695.52,470.61 701.02,473.6C706.52,476.59 710.79,480.84 713.82,486.34C716.86,491.84 718.37,498.15 718.37,505.28C718.37,507.92 718.19,510.3 717.84,512.41L717.85,512.4ZM699.24,499.99C699.15,495.24 697.44,491.43 694.09,488.57C690.75,485.71 686.65,484.28 681.81,484.28C677.23,484.28 673.38,485.67 670.26,488.44C667.14,491.21 665.22,495.06 664.52,499.99L699.24,499.99Z" style="fill-rule:nonzero;"/>
    </g>
    <g transform="matrix(1,0,0,1,-118,-433)">
        <path d="M794.54,512.4L741.08,512.4C741.52,517.68 743.37,521.82 746.62,524.81C749.87,527.8 753.88,529.3 758.63,529.3C765.49,529.3 770.38,526.35 773.28,520.46L793.21,520.46C791.1,527.5 787.05,533.29 781.07,537.82C775.08,542.35 767.74,544.62 759.03,544.62C751.99,544.62 745.68,543.06 740.09,539.93C734.5,536.81 730.14,532.39 727.02,526.66C723.9,520.94 722.33,514.34 722.33,506.86C722.33,499.38 723.87,492.65 726.95,486.93C730.03,481.21 734.34,476.81 739.89,473.73C745.43,470.65 751.81,469.11 759.03,469.11C766.25,469.11 772.21,470.61 777.71,473.6C783.21,476.59 787.48,480.84 790.51,486.34C793.55,491.84 795.06,498.15 795.06,505.28C795.06,507.92 794.88,510.3 794.53,512.41L794.54,512.4ZM775.93,499.99C775.84,495.24 774.13,491.43 770.78,488.57C767.44,485.71 763.34,484.28 758.5,484.28C753.92,484.28 750.07,485.67 746.95,488.44C743.83,491.21 741.91,495.06 741.21,499.99L775.93,499.99Z" style="fill-rule:nonzero;"/>
    </g>
    <g transform="matrix(1,0,0,1,-118,-433)">
        <path d="M832.09,472.47C836.27,470.23 841.04,469.1 846.41,469.1C852.66,469.1 858.31,470.64 863.37,473.72C868.43,476.8 872.43,481.18 875.38,486.85C878.33,492.53 879.8,499.11 879.8,506.58C879.8,514.05 878.33,520.68 875.38,526.45C872.43,532.21 868.43,536.68 863.37,539.85C858.31,543.02 852.66,544.6 846.41,544.6C841.04,544.6 836.31,543.5 832.22,541.3C828.13,539.1 824.81,536.33 822.25,532.98L822.25,578.26L803.77,578.26L803.77,470.28L822.25,470.28L822.25,480.84C824.63,477.5 827.9,474.7 832.08,472.46L832.09,472.47ZM858.23,495.17C856.43,491.96 854.05,489.52 851.1,487.84C848.15,486.17 844.96,485.33 841.53,485.33C838.1,485.33 835.04,486.19 832.09,487.9C829.14,489.62 826.76,492.1 824.96,495.36C823.16,498.62 822.25,502.44 822.25,506.84C822.25,511.24 823.15,515.07 824.96,518.32C826.76,521.58 829.14,524.06 832.09,525.78C835.04,527.5 838.18,528.35 841.53,528.35C844.88,528.35 848.15,527.47 851.1,525.71C854.05,523.95 856.42,521.44 858.23,518.19C860.03,514.94 860.94,511.06 860.94,506.57C860.94,502.08 860.04,498.37 858.23,495.15L858.23,495.17Z" style="fill-rule:nonzero;"/>
    </g>
</svg>
